#N canvas 55 114 642 484 12;
#X obj 1 2 cnv 20 640 480 empty empty empty 20 12 0 12 #ebfeff #404040 0;
#X msg 124 25 listen 3000 127.0.0.1;
#X obj 124 79 netreceive -u;
#X msg 135 52 listen 0;
#X obj 157 310 osc~;
#X obj 115 364 dac~;
#X obj 125 337 *~;
#X obj 191 133 print;
#X obj 124 133 s cc;
#X obj 157 160 unpack f f;
#X obj 38 229 loadbang;
#X msg 38 256 0;
#X obj 106 310 line~;
#X obj 124 106 route cc n;
#X text 121 170 note;
#X text 235 170 velocity;
#X obj 157 194 mtof;
#X msg 106 256 \$1 2;
#X obj 224 194 / 512;
#X text 312 27 connect with `nc -u localhost 3000`;
#X connect 1 0 2 0;
#X connect 2 0 13 0;
#X connect 3 0 2 0;
#X connect 4 0 6 1;
#X connect 6 0 5 0;
#X connect 6 0 5 1;
#X connect 9 0 16 0;
#X connect 9 1 18 0;
#X connect 10 0 11 0;
#X connect 11 0 12 0;
#X connect 12 0 6 0;
#X connect 13 0 8 0;
#X connect 13 1 9 0;
#X connect 13 2 7 0;
#X connect 16 0 4 0;
#X connect 17 0 12 0;
#X connect 18 0 17 0;
